<svg width="16" height="16" viewBox="0 0 16 16" fill="none" xmlns="http://www.w3.org/2000/svg">
<g clip-path="url(#clip0_238_418)">
<path d="M8.66663 4.61542V1.33335C8.66663 0.965164 8.36815 0.666687 7.99996 0.666687H1.33329C0.965103 0.666687 0.666626 0.965164 0.666626 1.33335V14.6667C0.666626 15.0349 0.965103 15.3334 1.33329 15.3334H7.99996C8.36815 15.3334 8.66663 15.0349 8.66663 14.6667V13.7116M4.66663 13.3334V13.3545M2.99996 2.66669H6.33329M10.4161 7.11225L11.2123 6.71416C11.2336 6.70349 11.2587 6.719 11.2587 6.74284V9.21873M12.8434 7.12216L13.6396 6.72407C13.6609 6.71341 13.686 6.72892 13.686 6.75276V9.22865M8.98889 7.25261V7.3179C8.98889 7.39057 8.97413 7.46249 8.9455 7.5293L8.18389 9.30642M7.93073 13.0476L7.92851 11.388C7.92846 11.3484 7.89633 11.3163 7.85671 11.3163H6.66663C6.29844 11.3163 5.99996 11.0178 5.99996 10.6496V5.28208C5.99996 4.91389 6.29844 4.61542 6.66663 4.61542L14.6666 4.61542C15.0348 4.61542 15.3333 4.9139 15.3333 5.28209V10.6496C15.3333 11.0178 15.0348 11.3163 14.6666 11.3163L11.2765 11.3163C11.2573 11.3163 11.2389 11.3239 11.2254 11.3376L9.0714 13.5155C8.6528 13.9388 7.93153 13.6429 7.93073 13.0476ZM8.98891 7.29389C8.98891 7.66438 8.68857 7.96472 8.31808 7.96472C7.9476 7.96472 7.64726 7.66438 7.64726 7.29389C7.64726 6.92341 7.9476 6.62307 8.31808 6.62307C8.68857 6.62307 8.98891 6.92341 8.98891 7.29389Z" stroke="#B9121B" stroke-linecap="round"/>
</g>
<defs>
<clipPath id="clip0_238_418">
<rect width="16" height="16" fill="white"/>
</clipPath>
</defs>
</svg>
