<svg width="16" height="16" viewBox="0 0 16 16" fill="none" xmlns="http://www.w3.org/2000/svg">
<g clip-path="url(#clip0_238_408)">
<path d="M11.3333 14C11.3333 14.7364 11.9302 15.3334 12.6666 15.3334C13.403 15.3334 14 14.7364 14 14C14 13.2636 13.403 12.6667 12.6666 12.6667C11.9302 12.6667 11.3333 13.2636 11.3333 14ZM11.3333 14H8.66663M9.99996 14L9.99996 5.33335C9.99996 4.96516 9.70148 4.66669 9.33329 4.66669H1.33329C0.965103 4.66669 0.666626 4.96516 0.666626 5.33335V13.3334C0.666626 13.7015 0.965102 14 1.33329 14H2.64098M9.33329 14H5.38457M9.99996 6.66669H12.9558C13.19 6.66669 13.407 6.78955 13.5275 6.99036L15.2383 9.84168C15.3005 9.94529 15.3333 10.0638 15.3333 10.1847V13.3334C15.3333 13.7015 15.0348 14 14.6666 14H14.3333M7.99996 2.00002V0.666687M6.2761 2.94283L5.33329 2.00002M9.72382 2.94283L10.6666 2.00002M7.99996 4.66669V4.00002M9.99996 10.6667H0.666626M6.66663 7.33319L4.00003 7.33327M5.33329 8.66669V6.00002M5.33329 14C5.33329 14.7364 4.73634 15.3334 3.99996 15.3334C3.26358 15.3334 2.66663 14.7364 2.66663 14C2.66663 13.2636 3.26358 12.6667 3.99996 12.6667C4.73634 12.6667 5.33329 13.2636 5.33329 14Z" stroke="#2E7D32" stroke-linecap="round"/>
</g>
<defs>
<clipPath id="clip0_238_408">
<rect width="16" height="16" fill="white"/>
</clipPath>
</defs>
</svg>
