<svg width="21" height="17" viewBox="0 0 21 17" fill="none" xmlns="http://www.w3.org/2000/svg">
<path d="M10.5 16.3333L10.2978 16.1311C9.36016 15.1935 8.08839 14.6667 6.76231 14.6667H2.33337C1.78109 14.6667 1.33337 14.219 1.33337 13.6667V1.5C1.33337 0.947716 1.78109 0.5 2.33337 0.5H6.76231C8.08839 0.5 9.36016 1.02678 10.2978 1.96447L10.5 2.16667M10.5 16.3333V2.16667M10.5 16.3333L10.7022 16.1311C11.6399 15.1935 12.9117 14.6667 14.2378 14.6667H18.6667C19.219 14.6667 19.6667 14.219 19.6667 13.6667V1.5C19.6667 0.947716 19.219 0.5 18.6667 0.5H14.2378C12.9117 0.5 11.6399 1.02678 10.7022 1.96447L10.5 2.16667M17.1667 0.5V4.4063C17.1667 5.18291 16.2684 5.61467 15.662 5.12953V5.12953C15.3237 4.85892 14.8431 4.85892 14.5048 5.12953V5.12953C13.8984 5.61467 13 5.18291 13 4.40631V0.655606" stroke="#08090A" stroke-linecap="round" stroke-linejoin="round"/>
</svg>
