<svg width="20" height="14" viewBox="0 0 20 14" fill="none" xmlns="http://www.w3.org/2000/svg">
<path d="M1.66671 13.25H15.3254C15.6374 13.25 15.9232 13.0758 16.0661 12.7985L19.0735 6.9652C19.3595 6.41058 18.9568 5.75 18.3328 5.75H15.8334M1.66671 13.25L5.30062 6.20147C5.44356 5.92421 5.72937 5.75 6.04131 5.75H15.8334M1.66671 13.25C1.20647 13.25 0.833374 12.8769 0.833374 12.4167V1.58333C0.833374 1.1231 1.20647 0.75 1.66671 0.75H6.66671C6.92901 0.75 7.176 0.873495 7.33337 1.08333L8.08337 2.08333C8.24075 2.29317 8.48774 2.41667 8.75004 2.41667H15C15.4603 2.41667 15.8334 2.78976 15.8334 3.25V5.75" stroke="#08090A" stroke-linecap="round" stroke-linejoin="round"/>
</svg>
