<?xml version="1.0" encoding="UTF-8"?>
<svg xmlns="http://www.w3.org/2000/svg" id="Layer_1" data-name="Layer 1" viewBox="0 0 500 500">
  <defs>
    <style>
      .cls-1 {
        fill: #2e7d32;
      }

      .cls-2 {
        fill: #08090a;
      }

      .cls-3 {
        fill: #b9121b;
      }
    </style>
  </defs>
  <path class="cls-1" d="M121.6,88h22.37c5.24,0,9.49,4.25,9.49,9.49v68.38c0,5.24-4.25,9.49-9.49,9.49h-39.48c-5.24,0-9.49-4.25-9.49-9.49v-51.27c0-14.68,11.92-26.6,26.6-26.6Z"></path>
  <rect class="cls-1" x="178.51" y="88" width="58.46" height="87.36" rx="9.49" ry="9.49"></rect>
  <rect class="cls-3" x="262.03" y="88" width="58.46" height="152.88" rx="9.49" ry="9.49"></rect>
  <path class="cls-3" d="M355.03,88h22.37c14.68,0,26.6,11.92,26.6,26.6v116.79c0,5.24-4.25,9.49-9.49,9.49h-39.48c-5.24,0-9.49-4.25-9.49-9.49V97.49c0-5.24,4.25-9.49,9.49-9.49Z"></path>
  <path class="cls-2" d="M404,272.21v65.83c0,14.69-11.91,26.6-26.6,26.6h-39.08c-5.24,0-9.49,4.25-9.49,9.49v59.52c0,7.7-8.69,12.19-14.97,7.74l-105.91-75.01c-1.6-1.14-3.52-1.75-5.48-1.75H121.6c-14.69,0-26.6-11.91-26.6-26.6V206.69c0-5.24,4.25-9.49,9.49-9.49h122.99c5.24,0,9.49,4.25,9.49,9.49v24.7c0,5.24-4.25,9.49-9.49,9.49h-56.18c-5.24,0-9.49,4.25-9.49,9.49v2.86c0,5.24,4.25,9.49,9.49,9.49h223.21c5.24,0,9.49,4.25,9.49,9.49Z"></path>
</svg>
