<svg width="372" height="372" viewBox="0 0 372 372" fill="none" xmlns="http://www.w3.org/2000/svg">
<circle cx="186" cy="186" r="186" fill="white"/>
<path d="M112.279 91H125.128C128.138 91 130.58 93.4412 130.58 96.4511V135.729C130.58 138.739 128.138 141.18 125.128 141.18H102.451C99.4412 141.18 97 138.739 97 135.729V106.279C97 97.8469 103.847 91 112.279 91Z" fill="#2E7D32"/>
<path d="M173.097 91H150.42C147.409 91 144.969 93.4405 144.969 96.4511V135.729C144.969 138.739 147.409 141.18 150.42 141.18H173.097C176.108 141.18 178.548 138.739 178.548 135.729V96.4511C178.548 93.4405 176.108 91 173.097 91Z" fill="#2E7D32"/>
<path d="M221.071 91H198.393C195.383 91 192.942 93.4405 192.942 96.4511V173.363C192.942 176.374 195.383 178.815 198.393 178.815H221.071C224.081 178.815 226.522 176.374 226.522 173.363V96.4511C226.522 93.4405 224.081 91 221.071 91Z" fill="#B9121B"/>
<path d="M246.362 91H259.211C267.643 91 274.49 97.8469 274.49 106.279V173.363C274.49 176.373 272.049 178.815 269.039 178.815H246.362C243.352 178.815 240.911 176.373 240.911 173.363V96.4511C240.911 93.4412 243.352 91 246.362 91Z" fill="#B9121B"/>
<path d="M274.49 196.81V234.623C274.49 243.061 267.649 249.902 259.211 249.902H236.763C233.754 249.902 231.312 252.344 231.312 255.353V289.542C231.312 293.965 226.321 296.544 222.714 293.988L161.879 250.902C160.96 250.247 159.857 249.897 158.731 249.897H112.279C103.841 249.897 97 243.056 97 234.618V159.176C97 156.166 99.4412 153.725 102.451 153.725H173.097C176.107 153.725 178.548 156.166 178.548 159.176V173.363C178.548 176.373 176.107 178.814 173.097 178.814H140.827C137.817 178.814 135.376 181.256 135.376 184.266V185.908C135.376 188.918 137.817 191.359 140.827 191.359H269.039C272.049 191.359 274.49 193.801 274.49 196.81Z" fill="#08090A"/>
</svg>
