<svg width="21" height="20" viewBox="0 0 21 20" fill="none" xmlns="http://www.w3.org/2000/svg">
<path d="M1.33339 6.73625C1.33339 6.44535 1.48509 6.1755 1.73361 6.02431L10.0669 0.954764C10.333 0.79291 10.6671 0.792911 10.9332 0.954765L19.2665 6.02432C19.515 6.17551 19.6667 6.44536 19.6667 6.73626L19.6667 18.3334C19.6667 18.7936 19.2936 19.1667 18.8334 19.1667L14.6667 19.1667C14.2065 19.1667 13.8334 18.7936 13.8334 18.3334L13.8334 11.6667C13.8334 11.2065 13.4603 10.8334 13 10.8334H8.00005C7.53981 10.8334 7.16672 11.2065 7.16672 11.6667L7.1667 18.3334C7.1667 18.7936 6.7936 19.1667 6.33336 19.1667L2.1667 19.1667C1.70647 19.1667 1.33337 18.7936 1.33337 18.3334L1.33339 6.73625Z" stroke="#131316" stroke-width="1.2" stroke-linecap="round" stroke-linejoin="round"/>
</svg>
