<svg width="21" height="20" viewBox="0 0 21 20" fill="none" xmlns="http://www.w3.org/2000/svg">
<path d="M16.3334 7.50004V6.66671C16.3334 3.44505 13.7217 0.833374 10.5 0.833374C7.27838 0.833374 4.66671 3.44505 4.66671 6.66671V7.50004M16.3334 7.50004H15.0834C14.8533 7.50004 14.6667 7.68659 14.6667 7.91671V13.75C14.6667 13.9802 14.8533 14.1667 15.0834 14.1667H16.3334M16.3334 7.50004C18.1743 7.50004 19.6667 8.99243 19.6667 10.8334C19.6667 12.6743 18.1743 14.1667 16.3334 14.1667M4.66671 7.50004H5.91671C6.14683 7.50004 6.33337 7.68659 6.33337 7.91671L6.33337 13.75C6.33337 13.9802 6.14683 14.1667 5.91671 14.1667H4.66671C2.82576 14.1667 1.33337 12.6743 1.33337 10.8334C1.33337 8.99243 2.82576 7.50004 4.66671 7.50004ZM13 17.5H15.5C15.9603 17.5 16.3334 17.1269 16.3334 16.6667V14.1667M13 17.5C13 16.5796 12.2538 15.8334 11.3334 15.8334H10.5C9.57957 15.8334 8.83337 16.5796 8.83337 17.5C8.83337 18.4205 9.57957 19.1667 10.5 19.1667H11.3334C12.2538 19.1667 13 18.4205 13 17.5Z" stroke="#08090A" stroke-linecap="round" stroke-linejoin="round"/>
</svg>
