<svg width="16" height="16" viewBox="0 0 16 16" fill="none" xmlns="http://www.w3.org/2000/svg">
<g clip-path="url(#clip0_238_434)">
<path d="M2.66663 11.3333V4.66664M2.66663 11.3333H13.3333M2.66663 11.3333C2.29844 11.3333 1.99996 11.6318 1.99996 12V13.1315C1.99996 13.2631 1.961 13.3917 1.88799 13.5013L1.3576 14.2968C1.06225 14.7399 1.37984 15.3333 1.9123 15.3333H14.0876C14.6201 15.3333 14.9377 14.7399 14.6423 14.2968L14.1119 13.5013C14.0389 13.3917 14 13.2631 14 13.1315V12C14 11.6318 13.7015 11.3333 13.3333 11.3333M5.99996 11.3333V4.66664M9.99996 11.3333V4.66664M13.3333 4.66664V11.3333M7.99996 2.66668V2.68783M1.96867 13.3333H14.0313M15.3333 3.99997V3.80026C15.3333 3.51992 15.1579 3.26953 14.8945 3.17373L8.22779 0.749488C8.08062 0.695971 7.9193 0.695971 7.77213 0.749488L1.10546 3.17373C0.842004 3.26953 0.666626 3.51992 0.666626 3.80026V3.99997C0.666626 4.36816 0.965103 4.66664 1.33329 4.66664H14.6666C15.0348 4.66664 15.3333 4.36816 15.3333 3.99997Z" stroke="#08090A" stroke-linecap="round"/>
</g>
<defs>
<clipPath id="clip0_238_434">
<rect width="16" height="16" fill="white"/>
</clipPath>
</defs>
</svg>
